<?xml version="1.0" encoding="UTF-8"?>
<svg width="68px" height="40px" viewBox="0 0 68 40" version="1.1" xmlns="http://www.w3.org/2000/svg" xmlns:xlink="http://www.w3.org/1999/xlink">
    <!-- Generator: Sketch 53.1 (72631) - https://sketchapp.com -->
    <title>Group</title>
    <desc>Created with Sketch.</desc>
    <g id="Page-1" stroke="none" stroke-width="1" fill="none" fill-rule="evenodd">
        <g id="noun_Cryptocurrency-Ethereum-cash_1505993" fill="#000000" fill-rule="nonzero">
            <g id="Group">
                <path d="M67,0 L29.54,0 C28.9877153,0 28.54,0.44771525 28.54,1 C28.54,1.55228475 28.9877153,2 29.54,2 L66,2 L66,38 L20.2,38 C19.6477153,38 19.2,38.4477153 19.2,39 C19.2,39.5522847 19.6477153,40 20.2,40 L67,40 C67.5522847,40 68,39.5522847 68,39 L68,1 C68,0.44771525 67.5522847,0 67,0 Z" id="Path"></path>
                <path d="M28.31,7 L34,7 C40.1133858,7 45.4007864,11.2595449 46.7020773,17.2328294 C48.0033681,23.206114 44.9669121,29.2790261 39.4075099,31.8219642 C33.8481077,34.3649022 27.2680315,32.6907087 23.6,27.8 C23.3856407,27.5141875 23.0350853,27.3644452 22.6803847,27.4071796 C22.3256842,27.449914 22.0207259,27.6786327 21.8803847,28.0071796 C21.7400435,28.3357265 21.7856406,28.7141875 22,29 C23.2259074,30.6278862 24.770664,31.9889053 26.54,33 L21.43,33 C20.8777153,33 20.43,33.4477153 20.43,34 C20.43,34.5522847 20.8777153,35 21.43,35 L55,35 C55.5522847,35 56,34.5522847 56,34 C56,30.6862915 58.6862915,28 62,28 C62.5522847,28 63,27.5522847 63,27 L63,13 C63,12.4477153 62.5522847,12 62,12 C58.6862915,12 56,9.3137085 56,6 C56,5.44771525 55.5522847,5 55,5 L28.31,5 C27.7577153,5 27.31,5.44771525 27.31,6 C27.31,6.55228475 27.7577153,7 28.31,7 Z M54.06,7 C54.5158665,10.6273155 57.3726845,13.4841335 61,13.94 L61,26.06 C57.3726845,26.5158665 54.5158665,29.3726845 54.06,33 L41.45,33 C46.1004164,30.3230361 48.9666852,25.3658651 48.9666852,20 C48.9666852,14.6341349 46.1004164,9.67696385 41.45,7 L54.06,7 Z" id="Shape"></path>
                <circle id="Oval" cx="53.5" cy="19.5" r="1.5"></circle>
                <path d="M13,7 L24,7 C24.5522847,7 25,6.55228475 25,6 C25,5.44771525 24.5522847,5 24,5 L13,5 C12.4477153,5 12,5.44771525 12,6 C12,6.55228475 12.4477153,7 13,7 Z" id="Path"></path>
                <path d="M4,7 L6,7 C6.55228475,7 7,6.55228475 7,6 C7,5.44771525 6.55228475,5 6,5 L4,5 C3.44771525,5 3,5.44771525 3,6 C3,6.55228475 3.44771525,7 4,7 Z" id="Path"></path>
                <path d="M15,26 L10,26 C9.44771525,26 9,26.4477153 9,27 C9,27.5522847 9.44771525,28 10,28 L15,28 C15.5522847,28 16,27.5522847 16,27 C16,26.4477153 15.5522847,26 15,26 Z" id="Path"></path>
                <path d="M22.43,21 C22.43,20.4477153 21.9822847,20 21.43,20 L17.5,20 C16.9477153,20 16.5,20.4477153 16.5,21 C16.5,21.5522847 16.9477153,22 17.5,22 L21.43,22 C21.9822847,22 22.43,21.5522847 22.43,21 Z" id="Path"></path>
                <path d="M6,12 C5.44771525,12 5,12.4477153 5,13 C5,13.5522847 5.44771525,14 6,14 L14,14 C14.5522847,14 15,13.5522847 15,13 C15,12.4477153 14.5522847,12 14,12 L6,12 Z" id="Path"></path>
                <path d="M24,13 C24,12.4477153 23.5522847,12 23,12 L19.07,12 C18.5177153,12 18.07,12.4477153 18.07,13 C18.07,13.5522847 18.5177153,14 19.07,14 L23,14 C23.5522847,14 24,13.5522847 24,13 Z" id="Path"></path>
                <path d="M1,22 L13,22 C13.5522847,22 14,21.5522847 14,21 C14,20.4477153 13.5522847,20 13,20 L1,20 C0.44771525,20 0,20.4477153 0,21 C0,21.5522847 0.44771525,22 1,22 Z" id="Path"></path>
                <path d="M14,33 L1,33 C0.44771525,33 0,33.4477153 0,34 C0,34.5522847 0.44771525,35 1,35 L14,35 C14.5522847,35 15,34.5522847 15,34 C15,33.4477153 14.5522847,33 14,33 Z" id="Path"></path>
                <path d="M33.15,30.13 C33.3323393,30.4242169 33.6538624,30.6032173 34,30.6032173 C34.3461376,30.6032173 34.6676607,30.4242169 34.85,30.13 L40.85,20.53 C40.9910213,20.3046877 41.0365377,20.0325017 40.9764947,19.7735664 C40.9164518,19.5146312 40.7557904,19.2902545 40.53,19.15 C40.4814929,19.1291503 40.4313155,19.1124245 40.38,19.1 L34.85,9.89 C34.8183354,9.83961124 34.7814665,9.79268722 34.74,9.75 C34.5503027,9.53813965 34.2793763,9.41706446 33.995,9.41706446 C33.7106237,9.41706446 33.4396973,9.53813965 33.25,9.75 C33.2085335,9.79268722 33.1716646,9.83961124 33.14,9.89 L27.62,19.1 C27.5687587,19.1126815 27.5186019,19.1294004 27.47,19.15 C27.2442096,19.2902545 27.0835482,19.5146312 27.0235053,19.7735664 C26.9634623,20.0325017 27.0089787,20.3046877 27.15,20.53 L33.15,30.13 Z M34,27.71 L31,23 L33.5,24.59 C33.8290494,24.8011133 34.2509506,24.8011133 34.58,24.59 L36.93,23 L34,27.71 Z M35,21.89 L35,14 L38.41,19.68 L35,21.89 Z M33,14 L33,21.83 L29.6,19.67 L33,14 Z" id="Shape"></path>
            </g>
        </g>
    </g>
</svg>