<?xml version="1.0" encoding="UTF-8"?>
<svg width="100px" height="125px" viewBox="0 0 100 125" version="1.1" xmlns="http://www.w3.org/2000/svg" xmlns:xlink="http://www.w3.org/1999/xlink">
    <!-- Generator: Sketch 53.1 (72631) - https://sketchapp.com -->
    <title>Shape</title>
    <desc>Created with Sketch.</desc>
    <g id="Page-1" stroke="none" stroke-width="1" fill="none" fill-rule="evenodd">
        <g id="noun_Pencil_1764522" fill="#000000" fill-rule="nonzero">
            <path d="M6.2,91.4 L0,125 L30.9,110.4 L89.8,34 L95.4,26.8 L95.4,26.8 C98.2,23.1 99.6,18.7 99.4,14.3 C99.2,9.8 97.2,5.9 93.8,3.3 C87,-1.9 76.6,0.1 70.6,7.8 L70.6,7.8 L70.5,7.9 C70.5,7.9 70.5,7.9 70.5,7.9 L7.7,89.4 C7.6,89.4 7.6,89.4 7.5,89.4 L7.5,89.5 L6.5,91 L6.2,91.4 Z M7.3,107.1 L15.4,113.3 L5.3,118.1 L7.3,107.1 Z M86.6,31.7 L83,36.4 L64.6,22.2 L71.4,13.4 L89.8,27.6 L86.6,31.7 Z M80.5,39.5 L30.9,103.8 C30.5,103.1 30,102.4 29.3,101.8 C27.5,100.2 25.6,99.7 24.2,99.6 C23.8,98.6 23,97.4 21.7,96.4 C20.2,95.2 18.6,94.8 17.4,94.7 C17,93.6 16.2,92.3 14.8,91.2 C14,90.5 13.2,90.1 12.4,89.8 L62.1,25.4 L80.5,39.5 Z M9.9,93.3 C10.6,93.4 11.5,93.6 12.4,94.3 C13.7,95.3 14,96.7 14,97.1 L14.3,99 L16.2,98.8 C16.5,98.8 17.9,98.7 19.3,99.7 C20.5,100.6 20.8,101.8 20.9,102.2 L21.3,104.1 L23.2,103.8 C23.3,103.8 25.2,103.5 26.7,104.9 C27.7,105.8 27.9,106.9 28,107.6 L19.5,111.6 L8.2,102.9 L9.9,93.3 Z M91.3,6.5 C93.7,8.4 95.1,11.2 95.3,14.6 C95.5,18 94.4,21.5 92.1,24.4 L73.8,10.3 C78.5,4.3 86.3,2.6 91.3,6.5 Z" id="Shape"></path>
        </g>
    </g>
</svg>